<svg xmlns="http://www.w3.org/2000/svg" viewBox="0 0 200 260" width="64" height="64">
  <line x1="100" y1="185" x2="100" y2="250" stroke="#f48fb1" stroke-width="10" stroke-linecap="round"/>
  <line x1="88" y1="250" x2="114" y2="250" stroke="#f48fb1" stroke-width="10" stroke-linecap="round"/>
  <polyline points="112,182 126,214 100,200" fill="none" stroke="#f48fb1" stroke-width="10" stroke-linecap="round" stroke-linejoin="round"/>
  <ellipse cx="100" cy="150" rx="50" ry="40" fill="#fb6f92"/>
  <path d="M140 140 q35 -5 50 15 q-30 5 -50 0 z" fill="#fb6f92"/>
  <path d="M70 140 q-20 -60 25 -90 q15 -10 25 0 q-30 5 -35 35 q-5 35 0 60 z" fill="#fb6f92"/>
  <circle cx="118" cy="48" r="18" fill="#fb6f92"/>
  <circle cx="124" cy="44" r="3" fill="#3a1f24"/>
  <path d="M132 50 l24 8 l-22 8 q-6 -8 -2 -16 z" fill="#3a1f24"/>
</svg>
